<svg width="148" height="46" viewBox="0 0 148 46" fill="none" xmlns="http://www.w3.org/2000/svg">
<g clip-path="url(#clip0_102_230)">
<path d="M11.5316 29.4699C13.254 29.4699 14.5877 29.2284 15.533 28.7455C16.4782 28.2625 16.9508 27.5591 16.9508 26.6353C16.9508 25.8164 16.6672 25.113 16.1001 24.5251C15.533 23.9162 14.8293 23.4017 13.9891 22.9818C13.1489 22.5619 12.0042 22.0684 10.5548 21.5015C10.4288 21.4595 10.1242 21.344 9.64115 21.155C7.66669 20.3572 6.14387 19.5593 5.07263 18.7614C4.0224 17.9635 3.49728 16.9347 3.49728 15.6748C3.49728 14.268 4.05391 13.2077 5.16715 12.4938C6.28039 11.7799 7.70873 11.4229 9.4521 11.4229C10.7334 11.4229 11.9097 11.5909 12.9809 11.9269C14.0731 12.2418 14.9343 12.6828 15.5645 13.2497C16.2156 13.8166 16.5412 14.457 16.5412 15.1709C16.2891 15.2969 16.0476 15.3599 15.8165 15.3599C15.5645 15.3599 15.3019 15.3074 15.0288 15.2024C14.7768 15.0764 14.3987 14.877 13.8946 14.604C13.0754 14.163 12.3088 13.8166 11.5946 13.5646C10.8804 13.2917 10.0402 13.1552 9.07402 13.1552C7.85574 13.1552 6.86853 13.3652 6.11236 13.7851C5.35619 14.205 4.97811 14.793 4.97811 15.5488C4.97811 16.1368 5.23017 16.6722 5.73428 17.1551C6.25941 17.638 6.91053 18.0685 7.68771 18.4464C8.48588 18.8034 9.54663 19.2338 10.8699 19.7377C12.5503 20.3887 13.9366 20.9976 15.0288 21.5645C16.1211 22.1314 17.0453 22.8558 17.8015 23.7377C18.5786 24.5985 18.9672 25.6274 18.9672 26.8242C18.9672 28.231 18.2951 29.3229 16.9508 30.0998C15.6065 30.8557 13.9366 31.2336 11.9412 31.2336C10.3658 31.2336 8.81148 31.0027 7.27812 30.5407C5.74477 30.0788 4.432 29.3964 3.33975 28.4935C2.2475 27.5696 1.55435 26.4673 1.26028 25.1865C1.26028 24.6196 1.41782 24.1366 1.73289 23.7377C2.04796 23.3178 2.43654 23.1078 2.89865 23.1078C2.89865 24.4726 3.27673 25.6379 4.0329 26.6038C4.81009 27.5486 5.84982 28.2625 7.15209 28.7455C8.47539 29.2284 9.9352 29.4699 11.5316 29.4699ZM36.0945 30.6667C35.5694 30.7717 35.2018 30.5197 34.9917 29.9108C34.7817 29.2809 34.6662 28.357 34.6451 27.1392C34.6031 25.3544 34.5401 23.8637 34.4561 22.6668C34.3931 21.449 34.2671 20.3572 34.078 19.3913C32.1246 20.3152 30.1922 21.1655 28.2807 21.9424C26.3903 22.6983 25.4451 23.0658 25.4451 23.0448L25.5081 29.7533C25.5081 30.0683 25.3191 30.2677 24.941 30.3517C24.4369 30.4567 24.1008 30.1732 23.9328 29.5014C23.7858 28.8085 23.6807 27.7271 23.6177 26.2573C23.5757 24.9345 23.5127 24.0001 23.4286 23.4542C22.8405 23.7482 22.3364 23.8847 21.9163 23.8637C21.8323 23.6957 21.7903 23.3492 21.7903 22.8243C21.9584 22.7613 22.1579 22.6878 22.3889 22.6038C22.641 22.5198 22.8195 22.4254 22.9245 22.3204C23.0506 22.1944 23.1136 22.0159 23.1136 21.785C23.1136 20.7351 23.0086 19.1183 22.7985 16.9347C22.5675 14.9609 22.4519 13.3337 22.4519 12.0528L22.4834 10.6041C22.5465 10.4571 22.62 10.3626 22.704 10.3206C22.809 10.2786 22.9456 10.2576 23.1136 10.2576C23.4707 10.2576 23.6492 10.3731 23.6492 10.6041L24.941 21.6905C25.5291 21.5435 26.5058 21.1655 27.8711 20.5566C29.2365 19.9477 31.3369 18.9608 34.1725 17.5961L34.2986 10.6041C34.2986 9.78517 34.6031 9.37573 35.2123 9.37573C35.4643 9.37573 35.6324 9.47022 35.7164 9.65919C35.8214 9.84816 35.8529 10.1631 35.8109 10.6041L35.7794 16.0528C35.7794 17.9005 35.8844 20.3047 36.0945 23.2652C36.1575 23.8532 36.21 24.4201 36.252 24.966C36.315 25.4909 36.3675 25.9949 36.4095 26.4778C36.5356 27.7796 36.6196 28.609 36.6616 28.9659C36.7246 29.3019 36.8191 29.6063 36.9452 29.8793C36.8401 30.2992 36.5566 30.5617 36.0945 30.6667ZM49.1717 30.6982C47.4284 30.6982 45.8634 30.3412 44.4771 29.6273C43.1119 28.9134 42.0407 27.9056 41.2634 26.6038C40.4862 25.302 40.0976 23.8007 40.0976 22.0999C40.0976 20.9451 40.3286 19.8847 40.7907 18.9189C41.2528 17.953 41.925 17.1866 42.8072 16.6197C43.6894 16.0318 44.7292 15.7378 45.9264 15.7378C48.1949 15.7378 50.2114 16.1263 51.9758 16.9032C53.7613 17.659 55.1476 18.7509 56.1347 20.1787C57.1429 21.6065 57.647 23.2548 57.647 25.1235C57.647 26.3623 57.1848 27.4016 56.2607 28.2415C55.3574 29.0814 54.2443 29.7008 52.921 30.0998C51.6188 30.4987 50.3689 30.6982 49.1717 30.6982ZM48.573 29.0604C50.6736 29.0604 52.438 28.7455 53.8662 28.1156C55.3155 27.4856 56.0402 26.4358 56.0402 24.966C56.0402 22.4044 55.0531 20.4832 53.0785 19.2023C51.1039 17.9005 48.5834 17.2496 45.5168 17.2496C44.0464 17.2496 43.0066 17.6905 42.3976 18.5724C41.8094 19.4333 41.5155 20.6091 41.5155 22.0999C41.5155 23.3387 41.8094 24.4936 42.3976 25.5644C43.0066 26.6143 43.847 27.4646 44.9182 28.1156C45.9894 28.7455 47.2079 29.0604 48.573 29.0604ZM67.3582 30.6982C65.615 30.6982 64.3439 30.3727 63.5459 29.7218C62.7686 29.0709 62.3801 27.8951 62.3801 26.1943L62.8212 19.1393V12.3678C62.8212 11.8429 62.9261 11.5069 63.1363 11.3599C63.3465 11.192 63.8083 11.108 64.5226 11.108L66.6651 11.171C69.3536 11.318 71.9794 11.3914 74.5418 11.3914C75.0878 11.3914 75.5186 11.5489 75.8336 11.8639C76.1698 12.1788 76.3377 12.6093 76.3377 13.1552C76.3377 13.2602 76.3062 13.3442 76.2432 13.4072C76.1802 13.4701 76.1068 13.4912 76.0227 13.4701L74.5418 12.9032L64.6801 13.1552C64.5541 13.1552 64.4807 13.1447 64.4596 13.1237C64.5438 13.2917 64.5856 13.4387 64.5856 13.5646V19.1393C65.552 19.2023 66.4864 19.2338 67.3897 19.2338C68.944 19.2338 70.6561 19.1603 72.5254 19.0134C72.7144 18.9923 72.998 18.9714 73.3761 18.9504C73.7753 18.9084 73.9959 18.9084 74.0377 18.9504C74.1638 19.0763 74.2583 19.1918 74.3213 19.2968C74.3843 19.4018 74.4262 19.5488 74.4473 19.7377C74.5103 20.1997 73.8068 20.5041 72.3363 20.6511C70.887 20.7981 68.944 20.9136 66.5076 20.9976C65.6884 20.9976 65.0056 21.0186 64.4596 21.0606C64.2075 21.6905 64.0815 22.6983 64.0815 24.0841L64.113 25.9424V27.9896C64.4492 28.2625 64.8165 28.441 65.2158 28.525C65.615 28.609 66.2659 28.651 67.1692 28.651C68.1144 28.651 69.0385 28.5985 69.9418 28.4935C70.8659 28.3885 71.4123 28.3255 71.5802 28.3045C73.3446 28.0945 74.6575 27.9896 75.5186 27.9896C76.0227 27.9896 76.3692 28.0421 76.5583 28.147C76.7685 28.231 76.8734 28.3885 76.8734 28.6195C76.8734 30.0053 74.0589 30.6982 68.4295 30.6982H67.3582Z" fill="#21D69F"/>
<path d="M16.1001 24.5249L15.7967 24.8073L15.7991 24.81L15.8017 24.8126L16.1001 24.5249ZM10.5548 21.5014L10.7059 21.1155L10.696 21.1116L10.6859 21.1082L10.5548 21.5014ZM9.64115 21.1549L9.48577 21.5392L9.49008 21.5408L9.64115 21.1549ZM5.07263 18.7613L4.82178 19.0912L4.82493 19.0936L5.07263 18.7613ZM12.9809 11.9267L12.8568 12.3221L12.8614 12.3236L12.866 12.3249L12.9809 11.9267ZM15.5645 13.2495L15.2871 13.5576L15.2896 13.5598L15.2922 13.5621L15.5645 13.2495ZM16.5412 15.1708L16.7266 15.5414L16.9557 15.4269V15.1708H16.5412ZM15.0288 15.2023L14.8434 15.5729L14.8614 15.5819L14.88 15.589L15.0288 15.2023ZM13.8946 14.6038L14.092 14.2395L14.0911 14.239L13.8946 14.6038ZM11.5946 13.5645L11.4465 13.9516L11.4516 13.9535L11.4566 13.9553L11.5946 13.5645ZM5.73428 17.155L5.44744 17.4542L5.45047 17.4571L5.45358 17.46L5.73428 17.155ZM7.68771 18.4463L7.50634 18.8189L7.51235 18.8219L7.5184 18.8246L7.68771 18.4463ZM10.8699 19.7376L11.0197 19.3512L11.0175 19.3503L10.8699 19.7376ZM17.8015 23.7375L17.4867 24.0072L17.4902 24.0113L17.4937 24.0152L17.8015 23.7375ZM16.9508 30.0996L17.154 30.4608L17.1583 30.4584L16.9508 30.0996ZM3.33975 28.4934L3.07194 28.8097L3.07556 28.8127L3.33975 28.4934ZM1.26028 25.1863H0.845718V25.2333L0.856224 25.279L1.26028 25.1863ZM1.73289 23.7375L2.05827 23.9943L2.06146 23.9903L2.06454 23.9862L1.73289 23.7375ZM2.89865 23.1076H3.31321V22.6932H2.89865V23.1076ZM4.0329 26.6036L3.70643 26.859L3.70951 26.863L3.71268 26.8668L4.0329 26.6036ZM7.15209 28.7453L7.00791 29.1339L7.00994 29.1346L7.15209 28.7453ZM11.5316 29.8841C13.2833 29.8841 14.6925 29.6401 15.7216 29.1143L15.3443 28.3763C14.4829 28.8164 13.2247 29.0553 11.5316 29.0553V29.8841ZM15.7216 29.1143C16.2414 28.8488 16.6562 28.5097 16.9404 28.0867C17.2268 27.6604 17.3653 27.1716 17.3653 26.6351H16.5362C16.5362 27.0225 16.4384 27.3473 16.2522 27.6245C16.0638 27.9048 15.7698 28.1589 15.3443 28.3763L15.7216 29.1143ZM17.3653 26.6351C17.3653 25.7092 17.0404 24.9027 16.3985 24.2373L15.8017 24.8126C16.2941 25.323 16.5362 25.9232 16.5362 26.6351H17.3653ZM16.4035 24.2425C15.7986 23.593 15.0533 23.0502 14.1745 22.611L13.8037 23.3523C14.6052 23.7529 15.2673 24.239 15.7967 24.8073L16.4035 24.2425ZM14.1745 22.611C13.3183 22.183 12.1604 21.6844 10.7059 21.1155L10.4038 21.8873C11.8479 22.4522 12.9796 22.9404 13.8037 23.3523L14.1745 22.611ZM10.6859 21.1082C10.5722 21.0703 10.2789 20.9593 9.79221 20.769L9.49008 21.5408C9.96965 21.7284 10.2854 21.8484 10.4238 21.8945L10.6859 21.1082ZM9.79653 20.7707C7.83795 19.9792 6.35148 19.197 5.32033 18.4289L4.82493 19.0936C5.93625 19.9213 7.49544 20.7349 9.48577 21.5392L9.79653 20.7707ZM5.32348 18.4313C4.37077 17.7075 3.91185 16.7981 3.91185 15.6747H3.08272C3.08272 17.0709 3.67402 18.2192 4.82178 19.0912L5.32348 18.4313ZM3.91185 15.6747C3.91185 14.3982 4.40547 13.4745 5.39102 12.8425L4.94329 12.1448C3.70236 12.9406 3.08272 14.1376 3.08272 15.6747H3.91185ZM5.39102 12.8425C6.41931 12.183 7.76333 11.8372 9.4521 11.8372V11.0084C7.65409 11.0084 6.14151 11.3765 4.94329 12.1448L5.39102 12.8425ZM9.4521 11.8372C10.6971 11.8372 11.8309 12.0004 12.8568 12.3221L13.105 11.5313C11.9884 11.1811 10.7696 11.0084 9.4521 11.0084V11.8372ZM12.866 12.3249C13.9175 12.6281 14.7167 13.0444 15.2871 13.5576L15.8418 12.9415C15.152 12.3209 14.2287 11.8552 13.0958 11.5286L12.866 12.3249ZM15.2922 13.5621C15.8736 14.0682 16.1266 14.6016 16.1266 15.1708H16.9557C16.9557 14.3121 16.5576 13.5647 15.8367 12.937L15.2922 13.5621ZM16.3558 14.8001C16.1488 14.9036 15.9706 14.9453 15.8165 14.9453V15.7742C16.1245 15.7742 16.4294 15.6899 16.7266 15.5414L16.3558 14.8001ZM15.8165 14.9453C15.6228 14.9453 15.4107 14.9051 15.1777 14.8155L14.88 15.589C15.1931 15.7094 15.5061 15.7742 15.8165 15.7742V14.9453ZM15.2142 14.8316C14.9685 14.7088 14.5953 14.512 14.092 14.2395L13.6971 14.9682C14.2021 15.2416 14.585 15.4438 14.8434 15.5729L15.2142 14.8316ZM14.0911 14.239C13.2572 13.7901 12.4708 13.4342 11.7325 13.1737L11.4566 13.9553C12.1467 14.1988 12.8936 14.5357 13.698 14.9687L14.0911 14.239ZM11.7426 13.1774C10.9706 12.8823 10.0781 12.7406 9.07402 12.7406V13.5695C10.0024 13.5695 10.7903 13.7008 11.4465 13.9516L11.7426 13.1774ZM9.07402 12.7406C7.8125 12.7406 6.74885 12.9574 5.91105 13.4227L6.31368 14.1472C6.98822 13.7726 7.89902 13.5695 9.07402 13.5695V12.7406ZM5.91105 13.4227C5.04614 13.903 4.56354 14.6179 4.56354 15.5487H5.39268C5.39268 14.9678 5.66625 14.5068 6.31368 14.1472L5.91105 13.4227ZM4.56354 15.5487C4.56354 16.2706 4.87824 16.9089 5.44744 17.4542L6.02112 16.8558C5.58209 16.4352 5.39268 16.0027 5.39268 15.5487H4.56354ZM5.45358 17.46C6.01382 17.9752 6.70034 18.427 7.50634 18.8189L7.86909 18.0737C7.12075 17.7097 6.50496 17.3006 6.01498 16.85L5.45358 17.46ZM7.5184 18.8246C8.32672 19.1861 9.3956 19.6196 10.7223 20.1249L11.0175 19.3503C9.69765 18.8477 8.64507 18.4204 7.85702 18.068L7.5184 18.8246ZM10.7201 20.124C12.3922 20.7717 13.7635 21.3746 14.8378 21.9321L15.2199 21.1966C14.1097 20.6203 12.7084 20.0052 11.0197 19.3512L10.7201 20.124ZM14.8378 21.9321C15.8857 22.4761 16.7671 23.1681 17.4867 24.0072L18.1162 23.4678C17.3235 22.5433 16.3564 21.7865 15.2199 21.1966L14.8378 21.9321ZM17.4937 24.0152C18.1997 24.7973 18.5527 25.7262 18.5527 26.8241H19.3818C19.3818 25.5283 18.9576 24.3996 18.1092 23.4599L17.4937 24.0152ZM18.5527 26.8241C18.5527 28.0653 17.9755 29.0287 16.7433 29.7409L17.1583 30.4584C18.6147 29.6167 19.3818 28.3965 19.3818 26.8241H18.5527ZM16.7475 29.7384C15.4809 30.4506 13.8858 30.8191 11.9412 30.8191V31.6479C13.9874 31.6479 15.732 31.2604 17.154 30.4608L16.7475 29.7384ZM11.9412 30.8191C10.407 30.8191 8.89294 30.5942 7.39777 30.1438L7.15848 30.9374C8.72997 31.4108 10.3246 31.6479 11.9412 31.6479V30.8191ZM7.39777 30.1438C5.91043 29.6957 4.64845 29.0374 3.60393 28.174L3.07556 28.8127C4.21552 29.755 5.57915 30.4615 7.15848 30.9374L7.39777 30.1438ZM3.60753 28.177C2.5773 27.3056 1.93657 26.2793 1.66434 25.0936L0.856224 25.279C1.17214 26.655 1.91769 27.8334 3.07194 28.8097L3.60753 28.177ZM1.67485 25.1863C1.67485 24.7012 1.80764 24.3117 2.05827 23.9943L1.4075 23.4808C1.02799 23.9613 0.845718 24.5376 0.845718 25.1863H1.67485ZM2.06454 23.9862C2.31353 23.6543 2.58612 23.522 2.89865 23.522V22.6932C2.28697 22.6932 1.78239 22.9809 1.40124 23.4889L2.06454 23.9862ZM2.48408 23.1076C2.48408 24.554 2.88673 25.812 3.70643 26.859L4.35937 26.3482C3.66674 25.4635 3.31321 24.3909 3.31321 23.1076H2.48408ZM3.71268 26.8668C4.54244 27.8756 5.64635 28.629 7.00791 29.1339L7.29628 28.3568C6.05325 27.8958 5.07773 27.2214 4.35311 26.3404L3.71268 26.8668ZM7.00994 29.1346C8.38443 29.6362 9.89312 29.8841 11.5316 29.8841V29.0553C9.97732 29.0553 8.56638 28.8203 7.29425 28.356L7.00994 29.1346ZM36.0945 30.6666L36.1758 31.0729L36.1811 31.0718L36.1863 31.0706L36.0945 30.6666ZM34.9917 29.9107L34.5984 30.0417L34.5998 30.0458L34.9917 29.9107ZM34.6451 27.1391L35.0597 27.1319L35.0596 27.1293L34.6451 27.1391ZM34.4561 22.6667L34.0421 22.6881L34.0423 22.6919L34.0426 22.6957L34.4561 22.6667ZM34.078 19.3912L34.4849 19.3116L34.3825 18.7887L33.9007 19.0166L34.078 19.3912ZM28.2807 21.9423L28.4347 22.3271L28.4369 22.3262L28.2807 21.9423ZM25.4451 23.0446L25.8597 23.0407L25.0305 23.0446H25.4451ZM25.5081 29.7532H25.9227L25.9227 29.7493L25.5081 29.7532ZM24.941 30.3516L25.0256 30.7573L25.0309 30.7561L24.941 30.3516ZM23.9328 29.5012L23.5272 29.5872L23.5288 29.5945L23.5306 29.6017L23.9328 29.5012ZM23.6177 26.2572L23.2033 26.2703L23.2035 26.2749L23.6177 26.2572ZM23.4287 23.4541L23.8384 23.3911L23.7519 22.8292L23.2433 23.0834L23.4287 23.4541ZM21.9163 23.8635L21.5455 24.0488L21.6538 24.2653L21.8956 24.2774L21.9163 23.8635ZM21.7903 22.8242L21.6447 22.4362L21.3757 22.537V22.8242H21.7903ZM22.3889 22.6037L22.2578 22.2105L22.2525 22.2123L22.2473 22.2142L22.3889 22.6037ZM22.7985 16.9345L23.2112 16.8949L23.2108 16.8906L23.2103 16.8864L22.7985 16.9345ZM22.4519 12.0527L22.0375 12.0437L22.0374 12.0482V12.0527H22.4519ZM22.4834 10.6039L22.1024 10.4407L22.0707 10.5146L22.069 10.5949L22.4834 10.6039ZM22.704 10.3205L22.55 9.93568L22.534 9.9421L22.5186 9.94981L22.704 10.3205ZM23.6492 10.6039H23.2346V10.628L23.2374 10.6519L23.6492 10.6039ZM24.941 21.6903L24.5292 21.7383L24.5838 22.2068L25.0416 22.0924L24.941 21.6903ZM34.1725 17.5959L34.3524 17.9693L34.5825 17.8586L34.5871 17.6034L34.1725 17.5959ZM34.2986 10.6039L34.7131 10.6114L34.7131 10.6076V10.6039H34.2986ZM35.7164 9.65906L35.3376 9.82735L35.3451 9.84422L35.354 9.86029L35.7164 9.65906ZM35.8109 10.6039L35.3982 10.5646L35.3965 10.583L35.3963 10.6015L35.8109 10.6039ZM35.7794 16.0526L35.3648 16.0502V16.0526H35.7794ZM36.0945 23.2651L35.6809 23.2944L35.6815 23.3019L35.6823 23.3092L36.0945 23.2651ZM36.252 24.9659L35.8387 24.9977L35.8393 25.0065L35.8404 25.0152L36.252 24.9659ZM36.4095 26.4776L35.9965 26.5135L35.9969 26.5176L36.4095 26.4776ZM36.6616 28.9658L36.2499 29.0142L36.2515 29.0282L36.2541 29.0422L36.6616 28.9658ZM36.9452 29.8792L37.3474 29.9797L37.3828 29.8381L37.3216 29.7055L36.9452 29.8792ZM36.0132 30.2602C35.8365 30.2955 35.7328 30.2648 35.6594 30.2145C35.5751 30.1567 35.4721 30.0321 35.3836 29.7756L34.5998 30.0458C34.7214 30.3982 34.9072 30.7039 35.1905 30.8981C35.4847 31.0998 35.8273 31.1426 36.1758 31.0729L36.0132 30.2602ZM35.385 29.7796C35.1951 29.2101 35.0804 28.3365 35.0597 27.1319L34.2307 27.1462C34.2519 28.3772 34.3683 29.3514 34.5984 30.0417L35.385 29.7796ZM35.0596 27.1293C35.0175 25.3409 34.9543 23.8432 34.8697 22.6377L34.0426 22.6957C34.126 23.8839 34.1888 25.3677 34.2307 27.1488L35.0596 27.1293ZM34.8701 22.6453C34.8063 21.4123 34.6784 20.3006 34.4849 19.3116L33.6712 19.4707C33.8557 20.4135 33.9798 21.4854 34.0421 22.6881L34.8701 22.6453ZM33.9007 19.0166C31.9539 19.9373 30.0285 20.7845 28.1246 21.5584L28.4369 22.3262C30.3558 21.5463 32.2953 20.6928 34.2553 19.7658L33.9007 19.0166ZM28.1268 21.5575C27.1818 21.9354 26.4744 22.2156 26.0038 22.3986C25.768 22.4902 25.5938 22.5566 25.4796 22.5985C25.4216 22.6197 25.3836 22.633 25.3623 22.6399C25.3496 22.6439 25.3519 22.6428 25.362 22.6405C25.3627 22.6403 25.389 22.6337 25.4249 22.6317C25.4362 22.6311 25.4944 22.6272 25.5649 22.6484C25.6022 22.6596 25.6738 22.6867 25.74 22.7536C25.8167 22.8311 25.8597 22.9357 25.8597 23.0446H25.0305C25.0305 23.1539 25.0736 23.2588 25.1505 23.3365C25.217 23.4036 25.2889 23.431 25.3267 23.4423C25.3981 23.4637 25.4577 23.46 25.4709 23.4593C25.5104 23.4571 25.5423 23.4495 25.5504 23.4476C25.5752 23.4418 25.5997 23.4342 25.6166 23.4288C25.6542 23.4166 25.7049 23.3987 25.7651 23.3766C25.8872 23.3319 26.0674 23.2631 26.3043 23.171C26.7788 22.9866 27.4892 22.7051 28.4347 22.3271L28.1268 21.5575ZM25.0306 23.0485L25.0936 29.7571L25.9227 29.7493L25.8597 23.0407L25.0306 23.0485ZM25.0935 29.7532C25.0935 29.8213 25.0762 29.8426 25.0654 29.854C25.0466 29.8738 24.9912 29.9159 24.8511 29.947L25.0309 30.7561C25.2689 30.7033 25.497 30.6036 25.6673 30.424C25.8455 30.236 25.9227 30 25.9227 29.7532H25.0935ZM24.8565 29.9459C24.7051 29.9774 24.6316 29.946 24.5782 29.901C24.5051 29.8394 24.4091 29.6973 24.335 29.4007L23.5306 29.6017C23.6245 29.977 23.7805 30.3126 24.0435 30.5345C24.3262 30.7729 24.6727 30.8308 25.0256 30.7573L24.8565 29.9459ZM24.3383 29.4152C24.1988 28.7578 24.0947 27.7052 24.0319 26.2394L23.2035 26.2749C23.2667 27.7487 23.3726 28.8588 23.5272 29.5872L24.3383 29.4152ZM24.0321 26.244C23.9901 24.9211 23.9266 23.9643 23.8384 23.3911L23.0189 23.5171C23.0987 24.0357 23.1613 24.9476 23.2033 26.2703L24.0321 26.244ZM23.2433 23.0834C22.6863 23.3618 22.2565 23.4656 21.937 23.4496L21.8956 24.2774C22.4163 24.3034 22.9948 24.1343 23.614 23.8247L23.2433 23.0834ZM22.2871 23.6782C22.2774 23.6588 22.2527 23.5872 22.2334 23.4278C22.2151 23.2772 22.2049 23.0774 22.2049 22.8242H21.3757C21.3757 23.0959 21.3865 23.3318 21.4103 23.5276C21.4329 23.7147 21.4712 23.9002 21.5455 24.0488L22.2871 23.6782ZM21.9358 23.2122C22.1022 23.1498 22.3004 23.0768 22.5306 22.9932L22.2473 22.2142C22.0154 22.2985 21.8144 22.3725 21.6447 22.4362L21.9358 23.2122ZM22.52 22.9969C22.7922 22.9062 23.0442 22.7867 23.2177 22.6133L22.6314 22.0272C22.5949 22.0637 22.4898 22.1333 22.2578 22.2105L22.52 22.9969ZM23.2177 22.6133C23.4426 22.3885 23.5281 22.0917 23.5281 21.7848H22.699C22.699 21.9399 22.6586 22.0001 22.6314 22.0272L23.2177 22.6133ZM23.5281 21.7848C23.5281 20.714 23.4214 19.0808 23.2112 16.8949L22.3859 16.9742C22.5957 19.1557 22.699 20.7559 22.699 21.7848H23.5281ZM23.2103 16.8864C22.9802 14.921 22.8665 13.3112 22.8665 12.0527H22.0374C22.0374 13.3558 22.1547 15.0007 22.3868 16.9827L23.2103 16.8864ZM22.8664 12.0617L22.8979 10.6129L22.069 10.5949L22.0375 12.0437L22.8664 12.0617ZM22.8645 10.7672C22.8864 10.7161 22.904 10.689 22.9131 10.6772C22.9219 10.6659 22.9158 10.6779 22.8894 10.6911L22.5186 9.94981C22.3034 10.0573 22.1792 10.2615 22.1024 10.4407L22.8645 10.7672ZM22.858 10.7052C22.8963 10.6899 22.9751 10.6719 23.1136 10.6719V9.84306C22.916 9.84306 22.7218 9.86701 22.55 9.93568L22.858 10.7052ZM23.1136 10.6719C23.1818 10.6719 23.2294 10.6775 23.2605 10.6842C23.2919 10.691 23.2977 10.697 23.2901 10.692C23.2797 10.6853 23.261 10.6689 23.2472 10.6421C23.2341 10.6168 23.2346 10.6 23.2346 10.6039H24.0638C24.0638 10.3624 23.9595 10.1378 23.7405 9.99614C23.5526 9.87459 23.3236 9.84306 23.1136 9.84306V10.6719ZM23.2374 10.6519L24.5292 21.7383L25.3528 21.6424L24.061 10.556L23.2374 10.6519ZM25.0416 22.0924C25.6688 21.9356 26.6754 21.5436 28.0401 20.9349L27.7022 20.1781C26.3363 20.7872 25.3894 21.1511 24.8405 21.2883L25.0416 22.0924ZM28.0401 20.9349C29.4112 20.3234 31.5162 19.3344 34.3524 17.9693L33.9927 17.2225C31.1577 18.5871 29.0617 19.5717 27.7022 20.1781L28.0401 20.9349ZM34.5871 17.6034L34.7131 10.6114L33.8841 10.5965L33.7581 17.5885L34.5871 17.6034ZM34.7131 10.6039C34.7131 10.2338 34.7841 10.0315 34.8597 9.92996C34.9181 9.85139 35.0102 9.79001 35.2123 9.79001V8.96118C34.8052 8.96118 34.4405 9.10453 34.1943 9.4354C33.9653 9.74326 33.884 10.1552 33.884 10.6039H34.7131ZM35.2123 9.79001C35.2884 9.79001 35.3184 9.80443 35.3241 9.80766C35.3267 9.80911 35.3273 9.80982 35.3278 9.81036C35.3285 9.81115 35.3323 9.81562 35.3376 9.82735L36.0952 9.49076C36.0198 9.32106 35.8982 9.1795 35.7306 9.08526C35.5683 8.994 35.3883 8.96118 35.2123 8.96118V9.79001ZM35.354 9.86029C35.3936 9.93153 35.4391 10.1355 35.3982 10.5646L36.2236 10.6432C36.2668 10.1905 36.2493 9.76452 36.0788 9.45782L35.354 9.86029ZM35.3963 10.6015L35.3648 16.0502L36.194 16.055L36.2255 10.6063L35.3963 10.6015ZM35.3648 16.0526C35.3648 17.9142 35.4706 20.3291 35.6809 23.2944L36.508 23.2358C36.2983 20.2799 36.194 17.8865 36.194 16.0526H35.3648ZM35.6823 23.3092C35.7449 23.8934 35.797 24.4562 35.8387 24.9977L36.6654 24.9341C36.623 24.3837 36.5701 23.8127 36.5067 23.221L35.6823 23.3092ZM35.8404 25.0152C35.9029 25.5361 35.9549 26.0355 35.9965 26.5135L36.8226 26.4418C36.7801 25.954 36.7271 25.4455 36.6636 24.9165L35.8404 25.0152ZM35.9969 26.5176C36.1228 27.8181 36.2073 28.6521 36.2499 29.0142L37.0733 28.9174C37.0319 28.5656 36.9483 27.7409 36.8222 26.4377L35.9969 26.5176ZM36.2541 29.0422C36.3226 29.4072 36.4266 29.7449 36.5688 30.0528L37.3216 29.7055C37.2117 29.4674 37.1266 29.1963 37.0691 28.8894L36.2541 29.0422ZM36.543 29.7787C36.5076 29.9202 36.4478 30.0168 36.3721 30.0869C36.2945 30.1586 36.1787 30.2224 36.0026 30.2625L36.1863 31.0706C36.4724 31.0057 36.7294 30.8857 36.9354 30.6951C37.1432 30.5027 37.2777 30.258 37.3474 29.9797L36.543 29.7787ZM44.4771 29.6272L44.2848 29.9944L44.2872 29.9956L44.4771 29.6272ZM42.8072 16.6196L43.0315 16.9682L43.0344 16.9663L43.0373 16.9644L42.8072 16.6196ZM51.9758 16.903L51.8087 17.2823L51.8112 17.2835L51.8141 17.2846L51.9758 16.903ZM56.1347 20.1786L55.7935 20.4142L55.796 20.4175L56.1347 20.1786ZM56.2607 28.2414L55.9817 27.9347L55.9784 27.938L56.2607 28.2414ZM52.921 30.0996L52.8012 29.7029L52.7995 29.7034L52.921 30.0996ZM53.8662 28.1154L53.7008 27.7354L53.6987 27.7363L53.8662 28.1154ZM53.0785 19.2022L52.8501 19.5481L52.853 19.5498L53.0785 19.2022ZM42.3976 18.5723L42.0565 18.3368L42.0552 18.3386L42.3976 18.5723ZM42.3976 25.5643L42.0341 25.7637L42.0366 25.768L42.039 25.7722L42.3976 25.5643ZM44.9182 28.1154L44.7026 28.4695L44.7055 28.4711L44.708 28.4726L44.9182 28.1154ZM49.1717 30.2836C47.4864 30.2836 45.9878 29.939 44.667 29.2588L44.2872 29.9956C45.739 30.7431 47.37 31.1125 49.1717 31.1125V30.2836ZM44.6691 29.26C43.3706 28.581 42.3566 27.6262 41.6195 26.3912L40.9074 26.816C41.7244 28.1847 42.8528 29.2456 44.2848 29.9944L44.6691 29.26ZM41.6195 26.3912C40.885 25.1612 40.5122 23.7351 40.5122 22.0998H39.683C39.683 23.866 40.0873 25.4424 40.9074 26.816L41.6195 26.3912ZM40.5122 22.0998C40.5122 21.0019 40.7314 20.0033 41.1647 19.0976L40.4167 18.7399C39.9259 19.7659 39.683 20.888 39.683 22.0998H40.5122ZM41.1647 19.0976C41.5942 18.1995 42.2152 17.4926 43.0315 16.9682L42.583 16.271C41.6348 16.8804 40.9113 17.7062 40.4167 18.7399L41.1647 19.0976ZM43.0373 16.9644C43.8428 16.4276 44.8001 16.1521 45.9264 16.1521V15.3233C44.6583 15.3233 43.536 15.6357 42.5772 16.2747L43.0373 16.9644ZM45.9264 16.1521C48.1473 16.1521 50.1053 16.5323 51.8087 17.2823L52.1428 16.5237C50.3175 15.7199 48.2422 15.3233 45.9264 15.3233V16.1521ZM51.8141 17.2846C53.5358 18.0135 54.8562 19.0584 55.7935 20.4142L56.4759 19.9429C55.4386 18.4431 53.9864 17.3043 52.1375 16.5214L51.8141 17.2846ZM55.796 20.4175C56.7512 21.7705 57.2325 23.3339 57.2325 25.1233H58.0616C58.0616 23.1753 57.5343 21.4422 56.4734 19.9396L55.796 20.4175ZM57.2325 25.1233C57.2325 26.2444 56.8204 27.1727 55.9817 27.9347L56.5397 28.548C57.5492 27.6303 58.0616 26.48 58.0616 25.1233H57.2325ZM55.9784 27.938C55.1269 28.7298 54.0714 29.32 52.8012 29.7029L53.0408 30.4964C54.4172 30.0814 55.5883 29.4328 56.5431 28.5448L55.9784 27.938ZM52.7995 29.7034C51.5314 30.0919 50.3225 30.2836 49.1717 30.2836V31.1125C50.4154 31.1125 51.7059 30.9052 53.0425 30.4959L52.7995 29.7034ZM48.573 29.4747C50.7122 29.4747 52.5375 29.1543 54.0337 28.4946L53.6987 27.7363C52.3381 28.3364 50.6347 28.6459 48.573 28.6459V29.4747ZM54.0316 28.4955C54.8102 28.157 55.4221 27.6932 55.8379 27.0909C56.2549 26.4867 56.4547 25.7716 56.4547 24.9659H55.6256C55.6256 25.6299 55.4631 26.1746 55.1555 26.6202C54.8467 27.0678 54.3716 27.4439 53.7008 27.7354L54.0316 28.4955ZM56.4547 24.9659C56.4547 22.2787 55.4084 20.2195 53.304 18.8545L52.853 19.5498C54.6974 20.7465 55.6256 22.5298 55.6256 24.9659H56.4547ZM53.3065 18.8562C51.247 17.4983 48.641 16.8351 45.5168 16.8351V17.6639C48.5262 17.6639 50.9609 18.3025 52.8501 19.5481L53.3065 18.8562ZM45.5168 16.8351C43.9655 16.8351 42.7699 17.3041 42.0565 18.3368L42.7388 18.8078C43.2438 18.0767 44.1276 17.6639 45.5168 17.6639V16.8351ZM42.0552 18.3386C41.4039 19.2921 41.1008 20.5599 41.1008 22.0998H41.93C41.93 20.658 42.2152 19.5743 42.7401 18.806L42.0552 18.3386ZM41.1008 22.0998C41.1008 23.4073 41.412 24.6309 42.0341 25.7637L42.7608 25.3648C42.2069 24.356 41.93 23.2699 41.93 22.0998H41.1008ZM42.039 25.7722C42.6841 26.884 43.5742 27.7838 44.7026 28.4695L45.1334 27.7613C44.1193 27.1451 43.3296 26.3442 42.7562 25.3564L42.039 25.7722ZM44.708 28.4726C45.8489 29.1436 47.1411 29.4747 48.573 29.4747V28.6459C47.2742 28.6459 46.1296 28.347 45.1284 27.7582L44.708 28.4726ZM63.5459 29.7217L63.2797 30.0394L63.2839 30.0428L63.5459 29.7217ZM62.3801 26.1942L61.9664 26.1683L61.9656 26.1813V26.1942H62.3801ZM62.8212 19.1392L63.235 19.1651L63.2358 19.1521V19.1392H62.8212ZM63.1363 11.3598L63.3743 11.6993L63.385 11.6917L63.3954 11.6834L63.1363 11.3598ZM64.5226 11.1078L64.5346 10.6936L64.5288 10.6934H64.5226V11.1078ZM66.6651 11.1708L66.6879 10.757L66.6825 10.7568L66.6771 10.7566L66.6651 11.1708ZM75.8336 11.8637L75.5405 12.1568L75.5451 12.1615L75.5501 12.1661L75.8336 11.8637ZM76.0227 13.47L75.8743 13.857L75.8979 13.866L75.9223 13.872L76.0227 13.47ZM74.5418 12.9031L74.6903 12.5161L74.6136 12.4867L74.5315 12.4888L74.5418 12.9031ZM64.6801 13.1551V13.5695H64.6855L64.6909 13.5693L64.6801 13.1551ZM64.4596 13.1236L64.7527 12.8305L64.089 13.3089L64.4596 13.1236ZM64.5856 19.1392H64.1711V19.5275L64.5587 19.5527L64.5856 19.1392ZM72.5254 19.0132L72.5581 19.4263L72.5648 19.4259L72.5714 19.4251L72.5254 19.0132ZM73.3761 18.9502L73.3993 19.364L73.4092 19.3634L73.4196 19.3624L73.3761 18.9502ZM74.4473 19.7376L74.0352 19.7834L74.0361 19.7885L74.0365 19.7936L74.4473 19.7376ZM72.3363 20.651L72.2953 20.2386L72.2945 20.2387L72.3363 20.651ZM66.5076 20.9974V21.4118H66.5146L66.5221 21.4116L66.5076 20.9974ZM64.4596 21.0604L64.4277 20.6472L64.1706 20.667L64.0749 20.9065L64.4596 21.0604ZM64.0815 24.084H63.6669V24.0875V24.091L64.0815 24.084ZM64.113 25.9422H64.5276V25.9387V25.9352L64.113 25.9422ZM64.113 27.9894H63.6985V28.1867L63.8518 28.3111L64.113 27.9894ZM69.9418 28.4934L69.895 28.0816L69.8941 28.0817L69.9418 28.4934ZM71.5802 28.3044L71.5313 27.8929L71.5288 27.8932L71.5802 28.3044ZM76.5583 28.1469L76.3568 28.5092L76.38 28.5219L76.4045 28.5317L76.5583 28.1469ZM67.3582 30.2836C65.6498 30.2836 64.4961 29.9617 63.8079 29.4006L63.2839 30.0428C64.1922 30.7835 65.5798 31.1125 67.3582 31.1125V30.2836ZM63.812 29.404C63.1769 28.872 62.7947 27.8529 62.7947 26.1942H61.9656C61.9656 27.937 62.3607 29.2696 63.2797 30.0394L63.812 29.404ZM62.7939 26.22L63.235 19.1651L62.4075 19.1133L61.9664 26.1683L62.7939 26.22ZM63.2358 19.1392V12.3677H62.4067V19.1392H63.2358ZM63.2358 12.3677C63.2358 12.1286 63.2603 11.9591 63.2959 11.8456C63.3311 11.7329 63.3676 11.7037 63.3743 11.6993L62.8988 11.0203C62.6948 11.1628 62.5742 11.3752 62.5045 11.5984C62.4349 11.8208 62.4067 12.0818 62.4067 12.3677H63.2358ZM63.3954 11.6834C63.4203 11.6634 63.5078 11.6162 63.7146 11.5786C63.912 11.5427 64.1789 11.5223 64.5226 11.5223V10.6934C64.152 10.6934 63.8311 10.715 63.5662 10.7631C63.3113 10.8095 63.0625 10.8882 62.8772 11.0362L63.3954 11.6834ZM64.5106 11.5221L66.6531 11.5851L66.6771 10.7566L64.5346 10.6936L64.5106 11.5221ZM66.6423 11.5846C69.3382 11.732 71.9715 11.8057 74.5418 11.8057V10.9769C71.9873 10.9769 69.3693 10.9036 66.6879 10.757L66.6423 11.5846ZM74.5418 11.8057C75.0045 11.8057 75.32 11.9364 75.5405 12.1568L76.1267 11.5707C75.7171 11.1612 75.1716 10.9769 74.5418 10.9769V11.8057ZM75.5501 12.1661C75.7872 12.3882 75.9232 12.7006 75.9232 13.1551H76.7523C76.7523 12.5176 76.5525 11.9692 76.1172 11.5614L75.5501 12.1661ZM75.9232 13.1551C75.9232 13.1662 75.9215 13.163 75.9261 13.1513C75.9281 13.1455 75.9315 13.1387 75.936 13.1317C75.9406 13.1247 75.9451 13.1188 75.9501 13.114L76.5363 13.7001C76.6909 13.5456 76.7523 13.3488 76.7523 13.1551H75.9232ZM75.9501 13.114C75.9601 13.104 75.9854 13.0834 76.0268 13.0716C76.0691 13.0595 76.1043 13.0632 76.1234 13.068L75.9223 13.872C76.1524 13.9296 76.3742 13.8623 76.5363 13.7001L75.9501 13.114ZM76.1711 13.083L74.6903 12.5161L74.3934 13.2901L75.8743 13.857L76.1711 13.083ZM74.5315 12.4888L64.6698 12.7408L64.6909 13.5693L74.5526 13.3174L74.5315 12.4888ZM64.6801 12.7406C64.6254 12.7406 64.5977 12.7382 64.5894 12.7369C64.5848 12.7363 64.596 12.7374 64.6163 12.7442C64.6271 12.7477 64.6449 12.7544 64.6665 12.766C64.6876 12.7774 64.7195 12.7975 64.7527 12.8305L64.1665 13.4166C64.2382 13.4882 64.3174 13.5182 64.3543 13.5305C64.3978 13.5451 64.4397 13.5528 64.472 13.5574C64.5367 13.5667 64.6088 13.5695 64.6801 13.5695V12.7406ZM64.089 13.3089C64.157 13.4452 64.1711 13.5266 64.1711 13.5645H65.0002C65.0002 13.3504 64.9301 13.1378 64.8306 12.9382L64.089 13.3089ZM64.1711 13.5645V19.1392H65.0002V13.5645H64.1711ZM64.5587 19.5527C65.5333 19.6163 66.4769 19.6481 67.3897 19.6481V18.8193C66.4964 18.8193 65.5706 18.7881 64.6126 18.7257L64.5587 19.5527ZM67.3897 19.6481C68.9568 19.6481 70.6797 19.574 72.5581 19.4263L72.4931 18.6001C70.6321 18.7464 68.9315 18.8193 67.3897 18.8193V19.6481ZM72.5714 19.4251C72.7484 19.4054 73.0229 19.3849 73.3993 19.364L73.3533 18.5364C72.9731 18.5575 72.6804 18.579 72.4798 18.6013L72.5714 19.4251ZM73.4196 19.3624C73.6145 19.3419 73.7521 19.3331 73.8408 19.3331C73.862 19.3331 73.8785 19.3336 73.8906 19.3344C73.903 19.3351 73.908 19.3359 73.9071 19.3358C73.9067 19.3357 73.9034 19.3352 73.898 19.3339C73.893 19.3326 73.8839 19.3302 73.8719 19.3259C73.8541 19.3194 73.7994 19.2979 73.7446 19.2433L74.3308 18.6572C74.2657 18.592 74.1948 18.5613 74.1555 18.547C74.1115 18.5311 74.0705 18.5225 74.0381 18.5174C73.9743 18.5072 73.9055 18.5043 73.8408 18.5043C73.709 18.5043 73.5369 18.5166 73.3326 18.5381L73.4196 19.3624ZM73.7446 19.2433C73.8566 19.3551 73.9262 19.4438 73.966 19.5099L74.677 19.0835C74.5903 18.9395 74.471 18.7973 74.3308 18.6572L73.7446 19.2433ZM73.966 19.5099C73.9859 19.5433 74.0178 19.6242 74.0352 19.7834L74.8594 19.6919C74.8349 19.4731 74.7827 19.26 74.677 19.0835L73.966 19.5099ZM74.0365 19.7936C74.0369 19.7955 74.0361 19.7903 74.0386 19.7828C74.0406 19.776 74.0419 19.778 74.0328 19.7888C74.0104 19.8154 73.9474 19.8692 73.8023 19.9321C73.5108 20.0581 73.0196 20.1662 72.2953 20.2386L72.3778 21.0633C73.1236 20.9888 73.7193 20.8711 74.1314 20.6927C74.3379 20.6034 74.5311 20.4852 74.6691 20.3203C74.8179 20.1422 74.8909 19.9215 74.8582 19.6816L74.0365 19.7936ZM72.2945 20.2387C70.8584 20.3843 68.9257 20.4994 66.4935 20.5833L66.5221 21.4116C68.9622 21.3275 70.9152 21.2116 72.3778 21.0633L72.2945 20.2387ZM66.5076 20.583C65.6826 20.583 64.9882 20.6041 64.4277 20.6472L64.4915 21.4736C65.023 21.4327 65.6946 21.4118 66.5076 21.4118V20.583ZM64.0749 20.9065C63.7917 21.6139 63.6669 22.6889 63.6669 24.084H64.4961C64.4961 22.7075 64.6234 21.7668 64.8447 21.2143L64.0749 20.9065ZM63.6669 24.091L63.6985 25.9492L64.5276 25.9352L64.4961 24.077L63.6669 24.091ZM63.6985 25.9422V27.9894H64.5276V25.9422H63.6985ZM63.8518 28.3111C64.2357 28.6229 64.6627 28.832 65.1304 28.9304L65.3012 28.1193C64.9708 28.0498 64.6627 27.9018 64.3746 27.6678L63.8518 28.3111ZM65.1304 28.9304C65.5748 29.0239 66.2634 29.0653 67.1692 29.0653V28.2364C66.2688 28.2364 65.6548 28.1937 65.3012 28.1193L65.1304 28.9304ZM67.1692 29.0653C68.1297 29.0653 69.07 29.0119 69.9899 28.905L69.8941 28.0817C69.0074 28.1848 68.0991 28.2364 67.1692 28.2364V29.0653ZM69.9887 28.9051C70.9115 28.8003 71.4608 28.737 71.6316 28.7156L71.5288 27.8932C71.3638 27.9138 70.8207 27.9765 69.895 28.0816L69.9887 28.9051ZM71.6291 28.7159C73.3906 28.5063 74.6832 28.4038 75.5186 28.4038V27.575C74.6318 27.575 73.2986 27.6826 71.5313 27.8929L71.6291 28.7159ZM75.5186 28.4038C75.7582 28.4038 75.9485 28.4164 76.0944 28.4385C76.2453 28.4614 76.3241 28.4909 76.3568 28.5092L76.7598 27.7846C76.6035 27.6979 76.4144 27.6487 76.2188 27.6191C76.0181 27.5887 75.7835 27.575 75.5186 27.575V28.4038ZM76.4045 28.5317C76.4265 28.5406 76.4385 28.5484 76.4439 28.5526C76.4468 28.5547 76.448 28.5561 76.4488 28.5568C76.4493 28.5574 76.4497 28.5578 76.4497 28.5579C76.4497 28.558 76.4501 28.5586 76.4509 28.5599C76.4513 28.5612 76.4522 28.5638 76.4534 28.568C76.4559 28.5766 76.4588 28.5929 76.4588 28.6193H77.2879C77.2879 28.4402 77.2465 28.2587 77.1395 28.0981C77.0321 27.937 76.8796 27.8291 76.7121 27.7621L76.4045 28.5317ZM76.4588 28.6193C76.4588 28.8003 76.3763 28.991 76.0994 29.1955C75.8112 29.4083 75.344 29.6083 74.6633 29.776C73.306 30.1101 71.2357 30.2836 68.4295 30.2836V31.1125C71.2527 31.1125 73.4043 30.9395 74.8615 30.5808C75.5882 30.4019 76.1765 30.1689 76.5919 29.8621C77.0189 29.5468 77.2879 29.1313 77.2879 28.6193H76.4588ZM68.4295 30.2836H67.3582V31.1125H68.4295V30.2836Z" fill="black"/>
<path d="M95.4928 31.7374C95.3456 31.9054 95.1358 31.9894 94.8626 31.9894C93.8755 31.9894 92.3002 31.0865 90.1366 29.2808C87.9941 27.454 86.0933 25.6378 84.4338 23.832C84.5387 24.399 84.7385 25.3543 85.0324 26.6981C85.1585 27.2231 85.2633 27.727 85.3475 28.2099C85.4524 28.6928 85.505 29.0708 85.505 29.3437C85.505 29.9526 85.2845 30.3201 84.8434 30.4461C84.7385 30.7191 84.4549 30.0366 83.9927 28.3989C83.5516 26.7611 83.1316 24.8714 82.7324 22.7297C82.3543 20.567 82.1653 18.7613 82.1653 17.3125C82.1653 16.5776 82.2283 15.9792 82.3543 15.5172C82.6275 15.3072 82.8584 15.2023 83.0475 15.2023C83.4256 15.2023 83.688 15.5277 83.8352 16.1786C83.9823 16.8085 84.1187 17.8059 84.2448 19.1707L84.3078 19.8951C85.1269 19.8531 86.2401 19.6746 87.6475 19.3597C89.0757 19.0447 90.3467 18.6143 91.4599 18.0684C92.5941 17.5014 93.1612 16.8296 93.1612 16.0526C93.1612 15.6327 92.8565 15.1708 92.2475 14.6668C91.6593 14.1419 90.7456 13.701 89.5064 13.344C88.288 12.9871 86.7865 12.8086 85.0009 12.8086H83.9927C82.7954 12.8086 81.8606 13.0081 81.1886 13.407C80.5166 13.785 80.1804 14.6039 80.1804 15.8637C79.8653 15.8637 79.5817 15.6642 79.3297 15.2653C79.0776 14.8663 78.9516 14.4989 78.9516 14.1629C78.9516 12.8611 79.5713 12.0107 80.8105 11.6118C82.0708 11.2128 83.877 11.0134 86.2297 11.0134C87.4688 11.0134 88.7606 11.2128 90.1051 11.6118C91.4495 12.0107 92.5837 12.6407 93.5078 13.5015C94.4319 14.3414 94.8941 15.3912 94.8941 16.6511C94.8941 17.5119 94.5057 18.2258 93.7284 18.7928C92.9722 19.3597 92.0796 19.8006 91.0503 20.1156C90.0209 20.4305 88.7606 20.756 87.2694 21.0919C86.0303 21.3649 85.2215 21.5644 84.8434 21.6903C86.4606 23.874 88.0152 25.5748 89.5064 26.7926C91.0188 28.0105 92.5941 29.1128 94.2325 30.0996C94.7996 30.4356 95.1988 30.6876 95.4297 30.8555C95.6607 31.0235 95.7763 31.181 95.7763 31.328C95.7763 31.475 95.6818 31.6114 95.4928 31.7374ZM111.837 30.6981C111.585 30.6981 111.406 30.6351 111.301 30.5091C111.217 30.3831 111.175 30.2046 111.175 29.9737C111.175 29.5117 111.28 28.7978 111.49 27.832C111.721 26.9501 111.837 26.2257 111.837 25.6588C111.837 24.021 111.711 22.7717 111.459 21.9108H110.482C109.62 21.9108 108.497 21.8898 107.111 21.8478L104.149 21.8163H99.8954L99.9585 23.0446C99.9585 24.0105 100.116 25.2178 100.431 26.6666C100.536 27.2546 100.63 27.853 100.715 28.4619C100.82 29.0498 100.872 29.5852 100.872 30.0681V30.3516C100.662 30.5616 100.441 30.6666 100.211 30.6666C99.6641 30.6666 99.2338 30.0262 98.9187 28.7453C98.6037 27.4435 98.4461 25.8792 98.4461 24.0525C98.4461 23.3176 98.4776 22.5932 98.5406 21.8793C98.0784 21.8583 97.7633 21.7848 97.5954 21.6588C97.4271 21.5119 97.3434 21.2914 97.3434 20.9974C97.3434 20.7665 97.4064 20.609 97.5324 20.525C97.6792 20.441 97.9312 20.378 98.2886 20.336L98.2571 19.4857L98.3516 18.0369C98.4984 15.6642 98.7189 13.7325 99.0132 12.2417C99.3072 10.7509 99.9373 9.4596 100.904 8.36775C101.87 7.27589 103.319 6.72998 105.252 6.72998C107.457 6.72998 109.179 7.91632 110.419 10.289C111.658 12.6616 112.498 15.3072 112.939 18.2258C113.38 21.1444 113.601 23.6535 113.601 25.7533C113.601 26.5092 113.58 27.1706 113.538 27.7375C113.496 28.2834 113.412 28.9658 113.286 29.7847C112.803 30.3936 112.32 30.6981 111.837 30.6981ZM111.332 20.6825C110.933 16.7981 110.219 13.7535 109.19 11.5488C108.161 9.3231 106.617 8.21027 104.558 8.21027C103.025 8.21027 101.891 8.92418 101.156 10.352C100.441 11.7588 100.011 13.2706 99.8639 14.8873C99.7168 16.5041 99.6434 18.3203 99.6434 20.336L111.332 20.6825ZM123.627 31.013C122.178 31.013 120.938 30.6141 119.909 29.8162C118.88 29.0183 118.092 27.9265 117.546 26.5406C117.021 25.1548 116.758 23.5801 116.758 21.8163C116.758 19.8426 117.221 17.9739 118.145 16.2101C119.069 14.4254 120.277 12.9976 121.768 11.9267C123.28 10.8349 124.845 10.289 126.462 10.289C127.828 10.289 128.878 10.5934 129.613 11.2023C130.348 11.8112 130.716 12.5252 130.716 13.344C130.716 13.827 130.569 14.2679 130.275 14.6668C130.002 15.0658 129.603 15.3702 129.078 15.5802C129.015 15.4542 128.983 15.2548 128.983 14.9818C128.983 14.7298 129.015 14.4779 129.078 14.2259C129.119 13.8899 129.141 13.6485 129.141 13.5015C129.141 13.2915 129.109 13.1131 129.046 12.9661C128.752 12.2312 127.954 11.8637 126.652 11.8637C126.295 11.8637 125.874 11.8952 125.391 11.9582C124.278 12.1052 123.175 12.6616 122.083 13.6275C120.991 14.5724 120.098 15.7587 119.405 17.1865C118.712 18.6143 118.365 20.0736 118.365 21.5644C118.365 22.8662 118.575 24.105 118.995 25.2808C119.436 26.4357 120.067 27.37 120.886 28.0839C121.705 28.7978 122.682 29.1548 123.816 29.1548C125.286 29.1548 126.504 28.9763 127.471 28.6194C128.458 28.2624 129.424 27.7165 130.369 26.9816C130.474 26.8976 130.59 26.8556 130.716 26.8556C130.947 26.8556 131.104 26.9921 131.189 27.265C131.293 27.769 130.958 28.3149 130.18 28.9028C129.403 29.4907 128.395 29.9947 127.156 30.4146C125.916 30.8136 124.74 31.013 123.627 31.013ZM136.665 30.7296C136.224 30.7296 135.92 30.2256 135.752 29.2178C135.604 28.1889 135.478 26.3832 135.374 23.8005L135.279 21.5014C135.237 20.7035 135.09 19.4752 134.838 17.8164C134.817 17.6064 134.733 16.966 134.586 15.8952C134.439 14.8243 134.365 13.8795 134.365 13.0606C134.365 12.9346 134.428 12.7771 134.554 12.5881C134.68 12.3782 134.838 12.2732 135.027 12.2732C135.3 12.2732 135.478 12.3992 135.563 12.6511C135.667 12.9031 135.731 13.1551 135.752 13.407C135.794 13.638 135.815 13.785 135.815 13.848C135.941 14.2049 136.035 14.6983 136.098 15.3283C136.161 15.9371 136.213 16.5881 136.256 17.281C136.34 18.6458 136.424 19.6221 136.508 20.2101L137.485 18.8243C138.85 16.8085 140.078 15.1918 141.171 13.9739C142.284 12.7561 143.366 12.1682 144.416 12.2102C144.5 12.2942 144.542 12.3992 144.542 12.5252C144.542 12.7351 144.437 12.9766 144.227 13.2495C144.017 13.5225 143.702 13.8795 143.282 14.3204L142.62 15.0133C142.389 15.2863 141.685 16.0631 140.509 17.344C139.69 18.2048 139.018 18.9397 138.493 19.5486C137.968 20.1575 137.568 20.714 137.295 21.2179C138.22 22.4987 139.312 23.6326 140.572 24.6194C141.853 25.6063 143.523 26.7716 145.582 28.1154L146.527 28.7138C146.905 28.8608 147.199 29.0603 147.409 29.3123C147.64 29.5432 147.756 29.7847 147.756 30.0367C147.756 30.1626 147.724 30.2886 147.661 30.4146C147.514 30.6666 147.335 30.7925 147.126 30.7925C146.894 30.7925 146.485 30.6455 145.897 30.3516L144.196 29.1548C142.347 27.9369 140.772 26.8031 139.469 25.7533C138.167 24.7034 137.264 23.7061 136.76 22.7612L136.949 25.1234C137.138 27.2861 137.232 28.7348 137.232 29.4697C137.232 29.9947 137.19 30.3411 137.106 30.5091C137.022 30.6561 136.875 30.7296 136.665 30.7296Z" fill="black"/>
<path d="M95.4927 31.7375L95.2627 31.3927L95.2171 31.4232L95.1806 31.4646L95.4927 31.7375ZM90.1366 29.2809L89.8675 29.5962L89.8708 29.599L90.1366 29.2809ZM84.4338 23.8321L84.7389 23.5518L83.7634 22.4902L84.0263 23.9076L84.4338 23.8321ZM85.0324 26.6982L84.6274 26.7868L84.6282 26.7909L84.6295 26.795L85.0324 26.6982ZM85.3475 28.21L84.9391 28.281L84.9404 28.2896L84.9425 28.298L85.3475 28.21ZM84.8434 30.4462L84.7294 30.0477L84.5308 30.1045L84.4566 30.2974L84.8434 30.4462ZM83.9927 28.399L83.5922 28.5067L83.5939 28.5115L83.9927 28.399ZM82.7324 22.7298L82.3241 22.8012L82.3249 22.8057L82.7324 22.7298ZM82.3543 15.5173L82.1014 15.1889L81.9912 15.2738L81.9543 15.4083L82.3543 15.5173ZM83.8352 16.1787L83.431 16.27L83.4314 16.2729L83.8352 16.1787ZM84.2448 19.1708L84.6577 19.1349V19.1327L84.2448 19.1708ZM84.3078 19.8952L83.8949 19.9311L83.9293 20.3296L84.3289 20.3091L84.3078 19.8952ZM87.6475 19.3598L87.5584 18.9551L87.5571 18.9554L87.6475 19.3598ZM91.4599 18.0685L91.6423 18.4405L91.6452 18.4391L91.4599 18.0685ZM92.2475 14.667L91.9714 14.9761L91.9772 14.9812L91.983 14.9862L92.2475 14.667ZM89.5064 13.3441L89.3899 13.7418L89.3916 13.7424L89.5064 13.3441ZM81.1886 13.4071L81.3917 13.7683L81.3959 13.7659L81.4004 13.7635L81.1886 13.4071ZM80.1804 15.8638V16.2782H80.5949V15.8638H80.1804ZM80.8105 11.6119L80.6853 11.2168L80.6832 11.2174L80.8105 11.6119ZM93.5078 13.5016L93.2251 13.8048L93.2288 13.8082L93.5078 13.5016ZM93.7284 18.7929L93.4838 18.4581L93.4796 18.4613L93.7284 18.7929ZM87.2694 21.092L87.3586 21.4968L87.3606 21.4963L87.2694 21.092ZM84.8434 21.6904L84.7124 21.2973L84.1701 21.4779L84.5101 21.937L84.8434 21.6904ZM89.5064 26.7927L89.244 27.1137L89.2465 27.1155L89.5064 26.7927ZM94.2325 30.0997L94.0186 30.4547L94.021 30.4563L94.2325 30.0997ZM95.1806 31.4646C95.1296 31.5229 95.045 31.5751 94.8626 31.5751V32.4039C95.2262 32.4039 95.5616 32.288 95.8049 32.0104L95.1806 31.4646ZM94.8626 31.5751C94.4796 31.5751 93.9166 31.3939 93.1467 30.9528C92.3885 30.5181 91.4744 29.8576 90.4023 28.9628L89.8708 29.599C90.9624 30.5099 91.9175 31.2037 92.7346 31.6718C93.5401 32.1336 94.2586 32.4039 94.8626 32.4039V31.5751ZM90.4056 28.9656C88.2739 27.1482 86.3856 25.3435 84.7389 23.5518L84.1287 24.1125C85.8006 25.9323 87.7143 27.7601 89.8675 29.5962L90.4056 28.9656ZM84.0263 23.9076C84.1324 24.4817 84.3335 25.4429 84.6274 26.7868L85.4375 26.6097C85.1435 25.2659 84.945 24.3164 84.8413 23.7567L84.0263 23.9076ZM84.6295 26.795C84.7534 27.3122 84.8566 27.8075 84.9391 28.281L85.7558 28.139C85.6704 27.6467 85.5635 27.1341 85.4354 26.6015L84.6295 26.795ZM84.9425 28.298C85.0453 28.7713 85.0905 29.1152 85.0905 29.3439H85.9196C85.9196 29.0266 85.8599 28.6146 85.7525 28.122L84.9425 28.298ZM85.0905 29.3439C85.0905 29.6032 85.0428 29.7652 84.9843 29.8629C84.9321 29.9498 84.8566 30.0114 84.7294 30.0477L84.9574 30.8447C85.2712 30.755 85.5266 30.5699 85.6949 30.2893C85.857 30.0196 85.9196 29.6935 85.9196 29.3439H85.0905ZM84.4566 30.2974C84.4591 30.2902 84.4715 30.2588 84.5026 30.2217C84.5354 30.1822 84.6004 30.1232 84.7033 30.0997C84.8086 30.0758 84.8969 30.1015 84.9499 30.1278C84.998 30.1516 85.025 30.1791 85.032 30.1866C85.0428 30.1982 85.008 30.1563 84.9346 29.9801C84.8032 29.6637 84.6224 29.1045 84.3915 28.2865L83.5939 28.5115C83.8248 29.3312 84.0172 29.9321 84.1693 30.2981C84.2377 30.4631 84.3223 30.643 84.4305 30.757C84.4719 30.8009 84.6386 30.9647 84.8877 30.9078C85.1257 30.8536 85.2103 30.6473 85.2302 30.595L84.4566 30.2974ZM84.3932 28.2912C83.9554 26.6664 83.5375 24.7877 83.1399 22.6539L82.3249 22.8057C82.7254 24.9552 83.1478 26.856 83.5922 28.5067L84.3932 28.2912ZM83.1408 22.6585C82.7648 20.5086 82.5799 18.7286 82.5799 17.3126H81.7507C81.7507 18.7941 81.9439 20.6257 82.3241 22.8012L83.1408 22.6585ZM82.5799 17.3126C82.5799 16.5971 82.6416 16.0392 82.7544 15.6264L81.9543 15.4083C81.815 15.9194 81.7507 16.5583 81.7507 17.3126H82.5799ZM82.6072 15.8458C82.8601 15.6514 82.999 15.6168 83.0475 15.6168V14.788C82.7179 14.788 82.395 14.9633 82.1014 15.1889L82.6072 15.8458ZM83.0475 15.6168C83.0968 15.6168 83.1433 15.6296 83.2054 15.7066C83.2801 15.7992 83.3638 15.9735 83.431 16.27L84.2394 16.0874C84.1594 15.7331 84.0387 15.4192 83.8505 15.1863C83.6503 14.9378 83.3762 14.788 83.0475 14.788V15.6168ZM83.4314 16.2729C83.5715 16.8735 83.7062 17.847 83.8318 19.2089L84.6577 19.1327C84.5312 17.7651 84.3928 16.7438 84.2389 16.0846L83.4314 16.2729ZM83.8318 19.2067L83.8949 19.9311L84.7207 19.8593L84.6577 19.1349L83.8318 19.2067ZM84.3289 20.3091C85.1825 20.2653 86.3221 20.081 87.7379 19.7642L87.5571 18.9554C86.158 19.2684 85.0714 19.4411 84.2866 19.4813L84.3289 20.3091ZM87.7366 19.7645C89.1918 19.4436 90.4947 19.0033 91.6423 18.4405L91.2774 17.6964C90.1983 18.2254 88.96 18.646 87.5584 18.9551L87.7366 19.7645ZM91.6452 18.4391C92.8246 17.8497 93.5758 17.0706 93.5758 16.0528H92.7467C92.7467 16.5887 92.3636 17.1534 91.2745 17.6978L91.6452 18.4391ZM93.5758 16.0528C93.5758 15.4356 93.1388 14.8664 92.512 14.3477L91.983 14.9862C92.5746 15.4754 92.7467 15.8301 92.7467 16.0528H93.5758ZM92.5236 14.3578C91.8686 13.7733 90.8869 13.3105 89.6213 12.9459L89.3916 13.7424C90.6046 14.0917 91.4503 14.5108 91.9714 14.9761L92.5236 14.3578ZM89.6229 12.9465C88.3552 12.5749 86.8109 12.3943 85.0009 12.3943V13.2231C86.7616 13.2231 88.2213 13.3995 89.3899 13.7418L89.6229 12.9465ZM85.0009 12.3943H83.9927V13.2231H85.0009V12.3943ZM83.9927 12.3943C82.7573 12.3943 81.7387 12.5988 80.9767 13.0508L81.4004 13.7635C81.9829 13.4176 82.8336 13.2231 83.9927 13.2231V12.3943ZM80.9854 13.0459C80.114 13.5358 79.7658 14.5542 79.7658 15.8638H80.5949C80.5949 14.6537 80.9187 14.0343 81.3917 13.7683L80.9854 13.0459ZM80.1804 15.4494C80.0697 15.4494 79.8968 15.3869 79.68 15.0441L78.9794 15.4867C79.2666 15.9418 79.6609 16.2782 80.1804 16.2782V15.4494ZM79.68 15.0441C79.4536 14.6857 79.3661 14.395 79.3661 14.163H78.537C78.537 14.6029 78.7016 15.0471 78.9794 15.4867L79.68 15.0441ZM79.3661 14.163C79.3661 13.5787 79.5046 13.1318 79.7513 12.7929C79.9984 12.4539 80.3814 12.1854 80.9378 12.0064L80.6832 11.2174C80.0004 11.4373 79.454 11.7934 79.0813 12.3049C78.7086 12.8163 78.537 13.4455 78.537 14.163H79.3661ZM80.9357 12.007C82.1354 11.6271 83.892 11.4279 86.2297 11.4279V10.5991C83.8625 10.5991 82.0061 10.7987 80.6853 11.2168L80.9357 12.007ZM86.2297 11.4279C87.4241 11.4279 88.676 11.6201 89.9869 12.0091L90.2232 11.2146C88.8452 10.8058 87.5136 10.5991 86.2297 10.5991V11.4279ZM89.9869 12.0091C91.2766 12.3919 92.3528 12.9923 93.2251 13.8048L93.7905 13.1984C92.8142 12.2893 91.6219 11.6298 90.2232 11.2146L89.9869 12.0091ZM93.2288 13.8082C94.0658 14.5688 94.4796 15.5069 94.4796 16.6512H95.3087C95.3087 15.2758 94.7984 14.1142 93.7868 13.195L93.2288 13.8082ZM94.4796 16.6512C94.4796 17.3628 94.1682 17.9586 93.4838 18.4581L93.9725 19.1276C94.8423 18.4932 95.3087 17.6613 95.3087 16.6512H94.4796ZM93.4796 18.4613C92.767 18.9958 91.9184 19.4166 90.9288 19.7194L91.1717 20.5119C92.2405 20.1849 93.1774 19.7238 93.9771 19.1244L93.4796 18.4613ZM90.9288 19.7194C89.9127 20.0303 88.6632 20.3532 87.1782 20.6878L87.3606 21.4963C88.858 21.1589 90.1291 20.8309 91.1717 20.5119L90.9288 19.7194ZM87.1803 20.6873C85.9453 20.9593 85.1149 21.1632 84.7124 21.2973L84.9744 22.0836C85.328 21.9657 86.1149 21.7707 87.3586 21.4968L87.1803 20.6873ZM84.5101 21.937C86.1406 24.138 87.718 25.8672 89.244 27.1137L89.7688 26.4718C88.3125 25.2826 86.7811 23.6103 85.1767 21.4439L84.5101 21.937ZM89.2465 27.1155C90.7729 28.3449 92.364 29.458 94.0186 30.4547L94.4464 29.7448C92.8242 28.7678 91.2646 27.6762 89.7664 26.47L89.2465 27.1155ZM94.021 30.4563C94.5878 30.7919 94.9721 31.0353 95.186 31.1908L95.6735 30.5205C95.4252 30.34 95.0114 30.0795 94.4439 29.7432L94.021 30.4563ZM95.186 31.1908C95.2813 31.2602 95.3319 31.3125 95.3555 31.3448C95.3779 31.3756 95.3617 31.3676 95.3617 31.3281H96.1909C96.1909 30.9645 95.9181 30.6984 95.6735 30.5205L95.186 31.1908ZM95.3617 31.3281C95.3617 31.3195 95.3634 31.3114 95.3655 31.3053C95.3671 31.2996 95.3684 31.2994 95.3647 31.3048C95.3559 31.3174 95.3286 31.3487 95.2627 31.3927L95.7228 32.0823C95.9612 31.9233 96.1909 31.6774 96.1909 31.3281H95.3617ZM111.301 30.5092L110.956 30.7391L110.968 30.7575L110.983 30.7745L111.301 30.5092ZM111.49 27.8321L111.089 27.7271L111.087 27.7355L111.085 27.7441L111.49 27.8321ZM111.459 21.9109L111.856 21.7945L111.769 21.4965H111.459V21.9109ZM107.111 21.8479L107.123 21.4337L107.119 21.4336L107.115 21.4336L107.111 21.8479ZM104.149 21.8164L104.153 21.402H104.149V21.8164ZM99.8954 21.8164V21.402H99.4589L99.4813 21.8376L99.8954 21.8164ZM99.9585 23.0448H100.373V23.0341L100.373 23.0235L99.9585 23.0448ZM100.431 26.6667L100.839 26.5939L100.838 26.5863L100.836 26.5787L100.431 26.6667ZM100.715 28.462L100.304 28.5186L100.305 28.5268L100.306 28.5348L100.715 28.462ZM100.872 30.3517L101.165 30.6447L101.287 30.5234V30.3517H100.872ZM98.9187 28.7454L98.5158 28.8429L98.5162 28.8444L98.9187 28.7454ZM98.5406 21.8794L98.9535 21.9158L98.9917 21.4851L98.5593 21.4654L98.5406 21.8794ZM97.5954 21.659L97.3222 21.9708L97.3343 21.9811L97.3467 21.9905L97.5954 21.659ZM97.5324 20.5251L97.3268 20.1653L97.3144 20.1724L97.3023 20.1803L97.5324 20.5251ZM98.2886 20.3361L98.3371 20.7477L98.7168 20.703L98.7027 20.3208L98.2886 20.3361ZM98.2571 19.4858L97.8433 19.4588L97.8421 19.4799L97.8425 19.5011L98.2571 19.4858ZM98.3516 18.037L98.7653 18.064V18.0626L98.3516 18.037ZM113.538 27.7376L113.951 27.7694V27.7682L113.538 27.7376ZM113.286 29.7848L113.611 30.0423L113.679 29.9563L113.696 29.8478L113.286 29.7848ZM111.332 20.6826L111.32 21.0968L111.793 21.1108L111.745 20.6402L111.332 20.6826ZM109.19 11.5489L108.814 11.7228L108.814 11.7242L109.19 11.5489ZM101.156 10.3521L100.787 10.1624L100.786 10.1645L101.156 10.3521ZM99.6434 20.3361H99.2288V20.7385L99.6309 20.7504L99.6434 20.3361ZM111.837 30.2837C111.743 30.2837 111.684 30.2718 111.652 30.2601C111.636 30.2546 111.627 30.2496 111.624 30.247C111.621 30.2457 111.621 30.2449 111.62 30.2445C111.619 30.2441 111.619 30.2439 111.619 30.2439L110.983 30.7745C111.201 31.0363 111.528 31.1126 111.837 31.1126V30.2837ZM111.646 30.2793C111.625 30.2485 111.59 30.163 111.59 29.9738H110.76C110.76 30.2465 110.808 30.5179 110.956 30.7391L111.646 30.2793ZM111.59 29.9738C111.59 29.5591 111.686 28.882 111.895 27.9201L111.085 27.7441C110.874 28.7138 110.76 29.4645 110.76 29.9738H111.59ZM111.891 27.9371C112.126 27.039 112.251 26.276 112.251 25.6589H111.422C111.422 26.1756 111.316 26.8614 111.089 27.7271L111.891 27.9371ZM112.251 25.6589C112.251 24.0085 112.125 22.7124 111.856 21.7945L111.061 22.0273C111.296 22.8313 111.422 24.0338 111.422 25.6589H112.251ZM111.459 21.4965H110.482V22.3253H111.459V21.4965ZM110.482 21.4965C109.627 21.4965 108.507 21.4756 107.123 21.4337L107.098 22.2621C108.486 22.3042 109.615 22.3253 110.482 22.3253V21.4965ZM107.115 21.4336L104.153 21.402L104.144 22.2308L107.106 22.2623L107.115 21.4336ZM104.149 21.402H99.8954V22.2308H104.149V21.402ZM99.4813 21.8376L99.5443 23.066L100.373 23.0235L100.31 21.7952L99.4813 21.8376ZM99.5439 23.0448C99.5439 24.0515 99.7076 25.2907 100.026 26.7548L100.836 26.5787C100.524 25.1452 100.373 23.9698 100.373 23.0448H99.5439ZM100.023 26.7396C100.127 27.322 100.22 27.915 100.304 28.5186L101.125 28.4054C101.04 27.7912 100.945 27.1874 100.839 26.5939L100.023 26.7396ZM100.306 28.5348C100.408 29.1041 100.458 29.6147 100.458 30.0683H101.287C101.287 29.556 101.231 28.9957 101.123 28.3891L100.306 28.5348ZM100.458 30.0683V30.3517H101.287V30.0683H100.458ZM100.579 30.0587C100.424 30.2142 100.303 30.2523 100.211 30.2523V31.0811C100.58 31.0811 100.901 30.9092 101.165 30.6447L100.579 30.0587ZM100.211 30.2523C100.128 30.2523 99.9945 30.2121 99.8221 29.9552C99.6463 29.694 99.4742 29.2683 99.3213 28.6465L98.5162 28.8444C98.6783 29.5034 98.8789 30.0383 99.1339 30.4175C99.3917 30.801 99.7474 31.0811 100.211 31.0811V30.2523ZM99.3217 28.648C99.0166 27.3872 98.8607 25.8575 98.8607 24.0526H98.0316C98.0316 25.9012 98.1907 27.5 98.5158 28.8429L99.3217 28.648ZM98.8607 24.0526C98.8607 23.3296 98.8918 22.6173 98.9535 21.9158L98.1277 21.843C98.0635 22.5693 98.0316 23.3059 98.0316 24.0526H98.8607ZM98.5593 21.4654C98.3437 21.4556 98.1766 21.4341 98.0519 21.405C97.9229 21.375 97.8641 21.3424 97.8442 21.3274L97.3467 21.9905C97.4947 22.1015 97.6771 22.1687 97.8637 22.2121C98.0539 22.2565 98.2753 22.2822 98.5216 22.2934L98.5593 21.4654ZM97.8682 21.3471C97.8168 21.3019 97.7579 21.2122 97.7579 20.9975H96.9288C96.9288 21.3709 97.0378 21.7221 97.3222 21.9708L97.8682 21.3471ZM97.7579 20.9975C97.7579 20.9169 97.7691 20.8757 97.7754 20.8601C97.7799 20.8495 97.7774 20.8599 97.7625 20.8699L97.3023 20.1803C97.0092 20.3756 96.9288 20.7046 96.9288 20.9975H97.7579ZM97.738 20.8849C97.8073 20.8454 97.9868 20.7889 98.3371 20.7477L98.2401 19.9245C97.8761 19.9674 97.5515 20.0369 97.3268 20.1653L97.738 20.8849ZM98.7027 20.3208L98.6712 19.4704L97.8425 19.5011L97.874 20.3515L98.7027 20.3208ZM98.6708 19.5127L98.7653 18.064L97.9379 18.01L97.8433 19.4588L98.6708 19.5127ZM98.7653 18.0626C98.9117 15.6993 99.131 13.7877 99.4199 12.322L98.6066 12.1616C98.3072 13.6775 98.0854 15.6293 97.9379 18.0114L98.7653 18.0626ZM99.4199 12.322C99.7002 10.9002 100.299 9.67678 101.214 8.64245L100.593 8.09326C99.5758 9.2426 98.9142 10.6018 98.6066 12.1616L99.4199 12.322ZM101.214 8.64245C102.078 7.66604 103.397 7.1445 105.252 7.1445V6.31567C103.241 6.31567 101.661 6.88595 100.593 8.09326L101.214 8.64245ZM105.252 7.1445C107.267 7.1445 108.865 8.20992 110.051 10.4809L110.786 10.0973C109.494 7.6229 107.647 6.31567 105.252 6.31567V7.1445ZM110.051 10.4809C111.267 12.8089 112.094 15.41 112.529 18.2879L113.349 18.164C112.902 15.2047 112.049 12.5145 110.786 10.0973L110.051 10.4809ZM112.529 18.2879C112.968 21.1935 113.186 23.6808 113.186 25.7534H114.016C114.016 23.6265 113.792 21.0956 113.349 18.164L112.529 18.2879ZM113.186 25.7534C113.186 26.5021 113.166 27.1529 113.125 27.707L113.951 27.7682C113.994 27.1884 114.016 26.5164 114.016 25.7534H113.186ZM113.125 27.7058C113.084 28.2375 113.001 28.9086 112.876 29.7218L113.696 29.8478C113.822 29.0232 113.908 28.3296 113.951 27.7694L113.125 27.7058ZM112.961 29.5273C112.509 30.0973 112.132 30.2837 111.837 30.2837V31.1126C112.507 31.1126 113.096 30.6902 113.611 30.0423L112.961 29.5273ZM111.745 20.6402C111.344 16.7341 110.623 13.6378 109.566 11.3736L108.814 11.7242C109.816 13.8693 110.523 16.8622 110.92 20.7249L111.745 20.6402ZM109.566 11.375C109.03 10.2157 108.347 9.31732 107.503 8.70888C106.654 8.09737 105.667 7.79596 104.558 7.79596V8.62479C105.508 8.62479 106.322 8.87982 107.018 9.38114C107.717 9.88552 108.321 10.6564 108.814 11.7228L109.566 11.375ZM104.558 7.79596C103.725 7.79596 102.979 7.99078 102.337 8.39512C101.695 8.79876 101.182 9.39569 100.787 10.1624L101.524 10.5417C101.865 9.88063 102.286 9.40675 102.779 9.09648C103.27 8.78691 103.858 8.62479 104.558 8.62479V7.79596ZM100.786 10.1645C100.047 11.6195 99.6028 13.1824 99.451 14.8499L100.277 14.9249C100.419 13.3589 100.836 11.8982 101.526 10.5396L100.786 10.1645ZM99.451 14.8499C99.3026 16.4817 99.2288 18.3108 99.2288 20.3361H100.058C100.058 18.3301 100.131 16.5267 100.277 14.9249L99.451 14.8499ZM99.6309 20.7504L111.32 21.0968L111.345 20.2683L99.6554 19.9219L99.6309 20.7504ZM117.546 26.5408L117.158 26.6876L117.16 26.6926L117.546 26.5408ZM118.145 16.2102L118.512 16.4025L118.513 16.4007L118.145 16.2102ZM121.768 11.9268L122.01 12.2634L122.01 12.2628L121.768 11.9268ZM130.275 14.667L129.941 14.4211L129.937 14.427L129.933 14.4329L130.275 14.667ZM129.078 15.5803L128.707 15.7656L128.877 16.1067L129.231 15.9651L129.078 15.5803ZM129.078 14.226L129.48 14.3265L129.486 14.3023L129.489 14.2774L129.078 14.226ZM129.046 12.9662L128.661 13.1201L128.663 13.1248L128.665 13.1294L129.046 12.9662ZM125.391 11.9583L125.338 11.5474L125.337 11.5475L125.391 11.9583ZM122.083 13.6276L122.354 13.941L122.357 13.938L122.083 13.6276ZM118.995 25.2809L118.605 25.4203L118.606 25.4246L118.608 25.4288L118.995 25.2809ZM127.471 28.6195L127.33 28.2297L127.327 28.2307L127.471 28.6195ZM130.369 26.9817L130.624 27.3088L130.628 27.3053L130.369 26.9817ZM131.189 27.2652L131.594 27.1806L131.59 27.1617L131.585 27.1433L131.189 27.2652ZM127.156 30.4147L127.282 30.8092L127.286 30.8082L127.289 30.8072L127.156 30.4147ZM123.627 30.5987C122.258 30.5987 121.111 30.224 120.163 29.4888L119.655 30.1438C120.765 31.0044 122.096 31.4275 123.627 31.4275V30.5987ZM120.163 29.4888C119.201 28.7428 118.454 27.7155 117.932 26.3889L117.16 26.6926C117.73 28.1376 118.559 29.294 119.655 30.1438L120.163 29.4888ZM117.934 26.394C117.43 25.063 117.173 23.5394 117.173 21.8164H116.344C116.344 23.621 116.612 25.2469 117.158 26.6876L117.934 26.394ZM117.173 21.8164C117.173 19.9103 117.619 18.1075 118.512 16.4025L117.777 16.0179C116.822 17.8405 116.344 19.7751 116.344 21.8164H117.173ZM118.513 16.4007C119.41 14.6684 120.576 13.2927 122.01 12.2634L121.526 11.5903C119.977 12.7027 118.728 14.1826 117.776 16.0197L118.513 16.4007ZM122.01 12.2628C123.464 11.2138 124.945 10.7035 126.462 10.7035V9.87466C124.745 9.87466 123.097 10.4561 121.525 11.5909L122.01 12.2628ZM126.462 10.7035C127.772 10.7035 128.714 10.996 129.349 11.5215L129.878 10.8833C129.042 10.1911 127.884 9.87466 126.462 9.87466V10.7035ZM129.349 11.5215C130.006 12.0663 130.301 12.6697 130.301 13.3441H131.13C131.13 12.3808 130.69 11.5565 129.878 10.8833L129.349 11.5215ZM130.301 13.3441C130.301 13.7362 130.184 14.0914 129.941 14.4211L130.609 14.9128C130.953 14.4446 131.13 13.918 131.13 13.3441H130.301ZM129.933 14.4329C129.714 14.7532 129.386 15.0108 128.923 15.1955L129.231 15.9651C129.82 15.7299 130.29 15.3786 130.617 14.901L129.933 14.4329ZM129.448 15.395C129.43 15.3586 129.398 15.24 129.398 14.9819H128.568C128.568 15.2697 128.599 15.55 128.707 15.7656L129.448 15.395ZM129.398 14.9819C129.398 14.7648 129.425 14.5466 129.48 14.3265L128.675 14.1255C128.604 14.4093 128.568 14.695 128.568 14.9819H129.398ZM129.489 14.2774C129.531 13.9406 129.555 13.6767 129.555 13.5016H128.726C128.726 13.6205 128.708 13.8396 128.666 14.1746L129.489 14.2774ZM129.555 13.5016C129.555 13.2523 129.518 13.0149 129.427 12.803L128.665 13.1294C128.7 13.2114 128.726 13.331 128.726 13.5016H129.555ZM129.431 12.8123C129.039 11.8314 128.001 11.4494 126.652 11.4494V12.2783C127.906 12.2783 128.465 12.6312 128.661 13.1201L129.431 12.8123ZM126.652 11.4494C126.271 11.4494 125.832 11.4829 125.338 11.5474L125.445 12.3693C125.916 12.3078 126.317 12.2783 126.652 12.2783V11.4494ZM125.337 11.5475C124.121 11.7081 122.944 12.3128 121.808 13.3172L122.357 13.938C123.406 13.0106 124.435 12.5026 125.446 12.3692L125.337 11.5475ZM121.811 13.3142C120.673 14.2994 119.747 15.5323 119.032 17.0057L119.778 17.3675C120.449 15.9853 121.309 14.8455 122.354 13.941L121.811 13.3142ZM119.032 17.0057C118.313 18.4861 117.951 20.007 117.951 21.5645H118.78C118.78 20.1404 119.11 18.7426 119.778 17.3675L119.032 17.0057ZM117.951 21.5645C117.951 22.9117 118.168 24.1979 118.605 25.4203L119.386 25.1416C118.982 24.0123 118.78 22.8208 118.78 21.5645H117.951ZM118.608 25.4288C119.07 26.6382 119.736 27.6321 120.613 28.3964L121.158 27.7716C120.397 27.1082 119.803 26.2333 119.383 25.1331L118.608 25.4288ZM120.613 28.3964C121.511 29.1792 122.586 29.5693 123.816 29.5693V28.7405C122.777 28.7405 121.898 28.4167 121.158 27.7716L120.613 28.3964ZM123.816 29.5693C125.316 29.5693 126.587 29.3877 127.614 29.0082L127.327 28.2307C126.422 28.5651 125.257 28.7405 123.816 28.7405V29.5693ZM127.612 29.0092C128.645 28.6355 129.649 28.0667 130.624 27.3088L130.115 26.6546C129.199 27.3665 128.271 27.8895 127.33 28.2297L127.612 29.0092ZM130.628 27.3053C130.665 27.2758 130.691 27.2701 130.716 27.2701V26.4413C130.489 26.4413 130.284 26.5195 130.11 26.6581L130.628 27.3053ZM130.716 27.2701C130.724 27.2701 130.73 27.2707 130.733 27.2713C130.735 27.2716 130.736 27.2718 130.737 27.272C130.737 27.2718 130.737 27.2717 130.736 27.2715C130.735 27.2709 130.735 27.2707 130.736 27.2712C130.738 27.2731 130.765 27.2982 130.792 27.387L131.585 27.1433C131.528 26.9591 131.434 26.7795 131.279 26.6449C131.116 26.5042 130.919 26.4413 130.716 26.4413V27.2701ZM130.783 27.3497C130.833 27.5929 130.695 27.994 129.93 28.5725L130.43 29.2334C131.22 28.636 131.754 27.9453 131.594 27.1806L130.783 27.3497ZM129.93 28.5725C129.198 29.1262 128.233 29.612 127.023 30.0222L127.289 30.8072C128.556 30.3775 129.608 29.8555 130.43 29.2334L129.93 28.5725ZM127.028 30.0202C125.824 30.4082 124.69 30.5987 123.627 30.5987V31.4275C124.79 31.4275 126.009 31.2192 127.282 30.8092L127.028 30.0202ZM135.752 29.2179L135.341 29.2765L135.342 29.2812L135.342 29.286L135.752 29.2179ZM135.279 21.5015L135.693 21.4844L135.693 21.4797L135.279 21.5015ZM134.838 17.8165L134.425 17.8577L134.426 17.8683L134.428 17.8787L134.838 17.8165ZM134.554 12.5883L134.899 12.8181L134.905 12.8099L134.91 12.8015L134.554 12.5883ZM135.563 12.6512L135.169 12.7823L135.174 12.7967L135.18 12.8106L135.563 12.6512ZM135.752 13.4071L135.338 13.4415L135.34 13.4615L135.344 13.4813L135.752 13.4071ZM135.815 13.8481H135.4V13.9191L135.424 13.986L135.815 13.8481ZM136.098 15.3284L135.686 15.3696V15.371L136.098 15.3284ZM136.508 20.2102L136.097 20.2688L136.245 21.3024L136.847 20.4489L136.508 20.2102ZM137.485 18.8244L137.823 19.0631L137.826 19.0599L137.828 19.0567L137.485 18.8244ZM141.171 13.9741L140.865 13.6945L140.862 13.6974L141.171 13.9741ZM144.416 12.2103L144.709 11.9173L144.594 11.8027L144.433 11.7962L144.416 12.2103ZM143.282 14.3205L143.582 14.6067L143.582 14.6063L143.282 14.3205ZM142.62 15.0134L142.32 14.7273L142.312 14.7362L142.303 14.7457L142.62 15.0134ZM140.509 17.3441L140.809 17.6297L140.812 17.627L140.814 17.6243L140.509 17.3441ZM137.295 21.218L136.931 21.0206L136.807 21.2494L136.959 21.4604L137.295 21.218ZM140.572 24.6195L140.316 24.9458L140.319 24.9478L140.572 24.6195ZM145.582 28.1155L145.355 28.4626L145.36 28.4656L145.582 28.1155ZM146.527 28.7139L146.305 29.064L146.339 29.0856L146.377 29.1002L146.527 28.7139ZM147.409 29.3124L147.091 29.5777L147.103 29.5921L147.116 29.6054L147.409 29.3124ZM147.661 30.4147L148.019 30.6235L148.026 30.612L148.032 30.6L147.661 30.4147ZM145.897 30.3517L145.658 30.6906L145.684 30.7085L145.712 30.7224L145.897 30.3517ZM144.196 29.1549L144.434 28.816L144.429 28.8123L144.424 28.8088L144.196 29.1549ZM136.76 22.7613L137.126 22.5663L136.347 22.7943L136.76 22.7613ZM136.949 25.1235L136.536 25.1565L136.536 25.1595L136.949 25.1235ZM137.106 30.5092L137.466 30.7148L137.472 30.7048L137.477 30.6945L137.106 30.5092ZM136.665 30.3152C136.638 30.3152 136.566 30.3121 136.461 30.1374C136.349 29.9518 136.241 29.6343 136.16 29.1497L135.342 29.286C135.43 29.8093 135.559 30.2477 135.751 30.566C135.95 30.8952 136.252 31.1441 136.665 31.1441V30.3152ZM136.162 29.1593C136.018 28.1536 135.893 26.3669 135.788 23.7838L134.959 23.8175C135.064 26.3996 135.191 28.2245 135.341 29.2765L136.162 29.1593ZM135.788 23.7838L135.693 21.4844L134.865 21.5185L134.959 23.8175L135.788 23.7838ZM135.693 21.4797C135.65 20.6603 135.5 19.4152 135.248 17.7543L134.428 17.8787C134.68 19.5353 134.824 20.7468 134.865 21.5233L135.693 21.4797ZM135.25 17.7753C135.228 17.5558 135.143 16.9057 134.996 15.8389L134.175 15.9516C134.323 17.0265 134.405 17.6573 134.425 17.8577L135.25 17.7753ZM134.996 15.8389C134.851 14.7812 134.78 13.8559 134.78 13.0607H133.951C133.951 13.9033 134.026 14.8676 134.175 15.9516L134.996 15.8389ZM134.78 13.0607C134.78 13.0652 134.779 13.0477 134.797 13.002C134.816 12.9571 134.847 12.8962 134.899 12.8181L134.209 12.3584C134.07 12.568 133.951 12.8101 133.951 13.0607H134.78ZM134.91 12.8015C134.95 12.7342 134.982 12.7069 134.997 12.6968C135.008 12.6897 135.015 12.6877 135.027 12.6877V11.8589C134.649 11.8589 134.374 12.0824 134.199 12.375L134.91 12.8015ZM135.027 12.6877C135.1 12.6877 135.123 12.7038 135.126 12.7064C135.129 12.7082 135.149 12.7217 135.169 12.7823L135.956 12.5202C135.892 12.3289 135.781 12.1534 135.604 12.0292C135.43 11.9058 135.228 11.8589 135.027 11.8589V12.6877ZM135.18 12.8106C135.27 13.026 135.321 13.2359 135.338 13.4415L136.165 13.3727C136.14 13.0745 136.065 12.7805 135.945 12.4919L135.18 12.8106ZM135.344 13.4813C135.364 13.5942 135.379 13.683 135.388 13.7492C135.399 13.8222 135.4 13.8489 135.4 13.8481H136.229C136.229 13.7397 136.199 13.5519 136.16 13.333L135.344 13.4813ZM135.424 13.986C135.534 14.2978 135.624 14.7538 135.686 15.3696L136.511 15.2871C136.446 14.6431 136.347 14.1122 136.206 13.7102L135.424 13.986ZM135.686 15.371C135.748 15.9734 135.8 16.6183 135.842 17.3062L136.67 17.256C136.627 16.558 136.574 15.9012 136.51 15.2857L135.686 15.371ZM135.842 17.3062C135.926 18.6716 136.011 19.6629 136.097 20.2688L136.918 20.1516C136.837 19.5816 136.753 18.6202 136.67 17.256L135.842 17.3062ZM136.847 20.4489L137.823 19.0631L137.145 18.5857L136.169 19.9715L136.847 20.4489ZM137.828 19.0567C139.187 17.0498 140.404 15.4496 141.479 14.2507L140.862 13.6974C139.753 14.9342 138.512 16.5675 137.141 18.592L137.828 19.0567ZM141.477 14.2536C142.554 13.0747 143.527 12.5895 144.399 12.6244L144.433 11.7962C143.205 11.7471 142.014 12.4377 140.865 13.6945L141.477 14.2536ZM144.123 12.5033C144.124 12.5047 144.125 12.5057 144.125 12.5062C144.126 12.5068 144.126 12.5071 144.126 12.5071C144.126 12.507 144.126 12.5068 144.126 12.5067C144.126 12.5064 144.125 12.5064 144.125 12.5062C144.125 12.5058 144.126 12.5062 144.126 12.5088C144.127 12.5115 144.128 12.5168 144.128 12.5253H144.957C144.957 12.2968 144.876 12.0841 144.709 11.9173L144.123 12.5033ZM144.128 12.5253C144.128 12.6017 144.085 12.7539 143.898 12.997L144.555 13.5023C144.788 13.1996 144.957 12.8688 144.957 12.5253H144.128ZM143.898 12.997C143.701 13.2529 143.398 13.5976 142.982 14.0347L143.582 14.6063C144.006 14.1615 144.332 13.7923 144.555 13.5023L143.898 12.997ZM142.982 14.0347L142.32 14.7273L142.92 15.2996L143.582 14.6067L142.982 14.0347ZM142.303 14.7457C142.079 15.0106 141.383 15.7799 140.204 17.0638L140.814 17.6243C141.988 16.3466 142.699 15.5621 142.936 15.2811L142.303 14.7457ZM140.209 17.0585C139.387 17.9221 138.71 18.6624 138.179 19.2782L138.807 19.8193C139.326 19.2173 139.993 18.4877 140.809 17.6297L140.209 17.0585ZM138.179 19.2782C137.641 19.9013 137.223 20.4825 136.931 21.0206L137.66 21.4154C137.914 20.9457 138.294 20.414 138.807 19.8193L138.179 19.2782ZM136.959 21.4604C137.907 22.7733 139.026 23.9352 140.316 24.9458L140.828 24.2933C139.598 23.3301 138.533 22.2244 137.632 20.9756L136.959 21.4604ZM140.319 24.9478C141.612 25.9437 143.292 27.1155 145.355 28.4626L145.809 27.7685C143.755 26.428 142.095 25.2691 140.825 24.2913L140.319 24.9478ZM145.36 28.4656L146.305 29.064L146.749 28.3638L145.804 27.7654L145.36 28.4656ZM146.377 29.1002C146.704 29.2277 146.935 29.3909 147.091 29.5777L147.728 29.0471C147.463 28.7299 147.105 28.4942 146.677 28.3277L146.377 29.1002ZM147.116 29.6054C147.293 29.7827 147.341 29.9246 147.341 30.0368H148.17C148.17 29.645 147.987 29.304 147.702 29.0193L147.116 29.6054ZM147.341 30.0368C147.341 30.0911 147.328 30.1541 147.29 30.2294L148.032 30.6C148.12 30.4234 148.17 30.2344 148.17 30.0368H147.341ZM147.303 30.2059C147.25 30.2969 147.205 30.3403 147.178 30.3596C147.156 30.3754 147.141 30.3782 147.126 30.3782V31.2071C147.538 31.2071 147.83 30.9473 148.019 30.6235L147.303 30.2059ZM147.126 30.3782C147.083 30.3782 146.977 30.3614 146.785 30.2924C146.602 30.2265 146.368 30.124 146.082 29.9811L145.712 30.7224C146.013 30.8734 146.279 30.9914 146.505 31.0725C146.722 31.1505 146.937 31.2071 147.126 31.2071V30.3782ZM146.135 30.0128L144.434 28.816L143.957 29.4938L145.658 30.6906L146.135 30.0128ZM144.424 28.8088C142.583 27.5961 141.019 26.4701 139.73 25.4308L139.209 26.076C140.525 27.1363 142.111 28.2779 143.967 29.5009L144.424 28.8088ZM139.73 25.4308C138.449 24.3984 137.593 23.4422 137.126 22.5663L136.394 22.9563C136.935 23.9701 137.885 25.0087 139.209 26.076L139.73 25.4308ZM136.347 22.7943L136.536 25.1565L137.362 25.0904L137.173 22.7283L136.347 22.7943ZM136.536 25.1595C136.725 27.325 136.818 28.756 136.818 29.4698H137.647C137.647 28.7139 137.55 27.2472 137.362 25.0874L136.536 25.1595ZM136.818 29.4698C136.818 29.723 136.808 29.9228 136.789 30.0735C136.77 30.2328 136.745 30.3045 136.735 30.3239L137.477 30.6945C137.552 30.5459 137.59 30.3604 137.613 30.1732C137.636 29.9775 137.647 29.7416 137.647 29.4698H136.818ZM136.747 30.3036C136.744 30.3077 136.743 30.3076 136.745 30.3059C136.747 30.3041 136.749 30.3034 136.748 30.3039C136.745 30.305 136.723 30.3152 136.665 30.3152V31.1441C136.982 31.1441 137.29 31.0235 137.466 30.7148L136.747 30.3036Z" fill="black"/>
</g>
<defs>
<clipPath id="clip0_102_230">
<rect width="148" height="46" fill="white"/>
</clipPath>
</defs>
</svg>
